# xmcd
#
# Track frame offsets:
#	150
#	11597
#	29202
#	48501
#	62746
#	78754
#	94159
#	106274
#	123587
#	144481
#
# Disc length: 2124 seconds
#
# Revision: 5
# Processed by: cddbd v1.5.1PL2 Copyright (c) Steve Scherf et al.
# Submitted via: EasyCDDAExtractor 9.0.0.1
#
DISCID=84084a0a
DTITLE=Dolly Parton - I Will Always Love You And Other Greatest Hits
DYEAR=1996
DGENRE=Country
TTITLE0=Why'd You Come In Here Lookin' Like That
TTITLE1=Yellow Roses
TTITLE2=White Limozeen
TTITLE3=Eagle When She Flies
TTITLE4=Romeo
TTITLE5=Rockin' Years (Duet With Ricky Van Shelton)
TTITLE6=To Daddy
TTITLE7=Silver And Gold
TTITLE8=He's Alive
TTITLE9=I Will Always Love You (With Special Guest Vince Gill)
EXTD=
EXTT0=
EXTT1=
EXTT2=
EXTT3=
EXTT4=
EXTT5=Duet with Ricky Van Shelton
EXTT6=
EXTT7=
EXTT8=
EXTT9=
PLAYORDER=
